# xmcd CD database file
#
# Track frame offsets:
#	150
#	34247
#	69930
#	98430
#	126227
#	157590
#	185087
#	225300
#	242547
#	273921
#	293448
#	303443
#
# Disc length: 4337 seconds
#
# Revision: 0
# Processed by: cddbd v1.4PL0 Copyright (c) Steve Scherf et al.
# Submitted via: CDex 1.50beta9
#
DISCID=8d10ef0c
DTITLE=Stan Getz - Stan Getz_ East Of The Sun, West Coast Sessions - Volume 2
DYEAR=1955
DGENRE=Jazz
TTITLE0=Four
TTITLE1=Split Kick
TTITLE2=East Of The Sun (And West Of The Moon)
TTITLE3=Suddenly It's Spring
TTITLE4=Summertime
TTITLE5=S-h-i-n-e
TTITLE6=Of Thee I Sing
TTITLE7=Of Thee I Sing
TTITLE8=Of Thee I Sing
TTITLE9=Of Thee I Sing
TTITLE10=Of Thee I Sing
TTITLE11=Of Thee I Sing
EXTD=YEAR: 1955
EXTT0=
EXTT1=
EXTT2=
EXTT3=
EXTT4=
EXTT5=
EXTT6=
EXTT7=
EXTT8=
EXTT9=
EXTT10=
EXTT11=
PLAYORDER=
